<?xml version="1.0" standalone="no"?>
<!DOCTYPE svg PUBLIC "-//W3C//DTD SVG 20010904//EN"
 "http://www.w3.org/TR/2001/REC-SVG-20010904/DTD/svg10.dtd">
<svg version="1.0" xmlns="http://www.w3.org/2000/svg"
 width="300.000000pt" height="300.000000pt" viewBox="0 0 300.000000 300.000000"
 preserveAspectRatio="xMidYMid meet">
<metadata>
Created by potrace 1.11, written by Peter Selinger 2001-2013
</metadata>
<g transform="translate(0.000000,300.000000) scale(0.100000,-0.100000)"
fill="#000000" stroke="none">
<path d="M1310 2250 c-12 -12 -20 -33 -20 -54 0 -38 -7 -45 -48 -52 -244 -40
-415 -141 -486 -285 -35 -73 -38 -88 -42 -204 -2 -77 2 -113 17 -158 43 -132
204 -414 308 -537 154 -183 272 -258 418 -264 18 -1 34 -4 36 -6 3 -3 7 -52 9
-110 3 -116 9 -108 -64 -93 -68 13 -149 -31 -184 -100 -23 -44 -13 -122 20
-152 13 -12 23 -29 22 -36 -7 -35 -37 -125 -49 -143 -38 -60 -57 -56 289 -56
l316 0 -5 27 c-3 16 -10 46 -15 69 -11 49 0 81 31 95 34 15 62 -2 78 -46 7
-19 16 -35 19 -35 6 0 12 -36 14 -82 1 -28 1 -28 77 -28 85 0 85 0 66 80 -11
47 -66 173 -78 178 -8 3 12 62 21 62 3 0 5 31 5 69 -2 82 -24 121 -84 144 -46
19 -81 14 -136 -16 -35 -20 -101 -27 -155 -18 -6 1 -10 56 -13 153 -1 38 -6
68 -11 68 -5 0 -3 6 3 13 6 8 8 16 5 19 -2 3 19 22 47 43 29 21 59 43 66 49
35 29 138 135 162 166 14 19 28 37 31 40 11 10 78 117 114 182 38 68 92 212
101 271 3 18 8 45 11 60 7 35 7 144 0 177 -3 14 -9 39 -12 55 -9 42 -65 155
-77 155 -6 0 -8 3 -4 6 3 3 -18 27 -48 53 -85 74 -176 113 -340 146 -16 3 -88
8 -159 10 -123 4 -130 5 -133 25 -5 35 -23 60 -49 70 -37 14 -52 12 -74 -10z"/>
</g>
</svg>
